<?xml version="1.0" standalone="no"?><!DOCTYPE svg PUBLIC "-//W3C//DTD SVG 1.1//EN" "http://www.w3.org/Graphics/SVG/1.1/DTD/svg11.dtd"><svg t="1620466353240" class="icon" viewBox="0 0 1024 1024" version="1.1" xmlns="http://www.w3.org/2000/svg" p-id="3165" xmlns:xlink="http://www.w3.org/1999/xlink" width="200" height="200"><defs><style type="text/css"></style></defs><path d="M512 1024C230.4 1024 0 793.6 0 512S230.4 0 512 0s512 230.4 512 512-230.4 512-512 512z" fill="#92BE33" p-id="3166"></path><path d="M1024 512c0-40.696-4.952-80.264-14.032-118.28L715.64 262.064l-313.36 0.008s-70.904-2.408-70.904 66.336v401.48h-64.944v27.496L500.928 1023.72c3.688 0.08 7.36 0.28 11.072 0.28 281.6 0 512-230.4 512-512z" fill="#61872E" p-id="3167"></path><path d="M747.952 312.088l-8.224-30.84-33.92-19.536h-42.144L353.24 264.8l-25.704 12.336-11.304 18.504-2.056 65.784-2.056 346.4-61.672 2.056-2.056 13.368 17.472 30.84 33.92 14.392 377.24 1.024 26.728-8.224 18.504-33.92-4.112-413.216z" fill="#DACEB6" p-id="3168"></path><path d="M455.992 321.064H421.04a5.824 5.824 0 0 1 0-11.648h34.952c3.224 0 5.824 2.608 5.824 5.824s-2.6 5.824-5.824 5.824" fill="#474341" p-id="3169"></path><path d="M310.792 718.936h-0.048a5.826 5.826 0 0 1-5.784-5.872l3.072-403.88c0-28 22.808-50.808 50.856-50.808l323.008-4.224c0.936-0.096 33.056-2.616 53.616 16.736 11.312 10.64 16.8 25.608 16.328 44.48a5.826 5.826 0 0 1-5.824 5.68H499.52a5.824 5.824 0 0 1-5.824-5.824 5.826 5.826 0 0 1 5.824-5.832h240.6c-0.688-12.712-4.912-22.792-12.592-30.016-16.816-15.824-44.776-13.616-45.056-13.6l-323.504 4.24c-21.688 0-39.28 17.584-39.28 39.2l-3.072 403.92a5.824 5.824 0 0 1-5.824 5.8" fill="#474341" p-id="3170"></path><path d="M674.856 774.32H358.888a5.824 5.824 0 0 1 0-11.648h315.968c21.616 0 39.2-17.584 39.2-39.2v-408.24a5.824 5.824 0 0 1 11.648 0v408.24c0 28.04-22.808 50.848-50.848 50.848" fill="#474341" p-id="3171"></path><path d="M529.952 482.912h-167.384a4.08 4.08 0 0 1-4.08-4.08v-14.264a4.08 4.08 0 0 1 8.16 0v10.184h159.232v-95.4h-159.232v45.824a4.08 4.08 0 0 1-8.16 0v-49.904a4.08 4.08 0 0 1 4.08-4.08h167.392c2.256 0 4.08 1.824 4.08 4.08v103.56a4.088 4.088 0 0 1-4.088 4.08" fill="#8B7A5C" p-id="3172"></path><path d="M529.952 482.912c-0.728 0-1.464-0.192-2.136-0.6l-163.632-100.568a4.08 4.08 0 0 1-1.344-5.608 4.066 4.066 0 0 1 5.608-1.344l163.64 100.568a4.088 4.088 0 0 1 1.344 5.608 4.072 4.072 0 0 1-3.48 1.944" fill="#8B7A5C" p-id="3173"></path><path d="M362.568 482.912a4.08 4.08 0 0 1-2.152-7.544l167.392-103.56c1.92-1.2 4.432-0.592 5.616 1.32 1.184 1.92 0.6 4.432-1.32 5.616l-167.392 103.56a4.094 4.094 0 0 1-2.144 0.608" fill="#8B7A5C" p-id="3174"></path><path d="M308.288 774.344c-9.712 0-32.896-1.752-48.984-16.896-11.312-10.64-16.8-25.608-16.328-44.48a5.832 5.832 0 0 1 5.824-5.68h36.096a5.826 5.826 0 1 1 0 11.648h-30.192c0.688 12.712 4.912 22.8 12.584 30.024 16.808 15.824 44.76 13.6 45.056 13.6l49.112 0.12a5.814 5.814 0 0 1 5.808 5.84 5.82 5.82 0 0 1-5.824 5.808h-0.016l-48.6-0.136c-0.176 0.016-1.84 0.152-4.536 0.152M457.144 718.936h-146.352a5.824 5.824 0 0 1 0-11.648h146.352a5.824 5.824 0 0 1 0 11.648" fill="#474341" p-id="3175"></path><path d="M682.256 379.352h-74.048a4.076 4.076 0 0 1-4.08-4.08c0-2.256 1.824-4.08 4.08-4.08h74.048c2.256 0 4.08 1.824 4.08 4.08 0 2.248-1.832 4.08-4.08 4.08M593.696 379.352h-28.512a4.076 4.076 0 0 1-4.08-4.08c0-2.256 1.824-4.08 4.08-4.08h28.512a4.08 4.08 0 0 1 0 8.16M682.256 426.256h-31.288a4.08 4.08 0 0 1 0-8.16h31.288c2.256 0 4.08 1.824 4.08 4.08 0 2.248-1.832 4.08-4.08 4.08M630.264 426.256h-65.072a4.076 4.076 0 0 1-4.08-4.08c0-2.256 1.824-4.08 4.08-4.08h65.072c2.256 0 4.08 1.824 4.08 4.08a4.092 4.092 0 0 1-4.08 4.08M682.256 473.152h-59.16a4.076 4.076 0 0 1-4.08-4.08c0-2.256 1.824-4.08 4.08-4.08h59.16a4.08 4.08 0 0 1 0 8.16M596.472 473.152h-31.288a4.08 4.08 0 0 1 0-8.16h31.288c2.256 0 4.08 1.824 4.08 4.08s-1.824 4.08-4.08 4.08M674.944 540.688h-216.76a4.076 4.076 0 0 1-4.08-4.08c0-2.256 1.824-4.08 4.08-4.08h216.76c2.256 0 4.08 1.824 4.08 4.08s-1.824 4.08-4.08 4.08M438.072 540.688H366.32a4.076 4.076 0 0 1-4.08-4.08c0-2.256 1.824-4.08 4.08-4.08h71.744c2.256 0 4.08 1.824 4.08 4.08a4.07 4.07 0 0 1-4.072 4.08M483.392 581.712H418.32c-2.256 0-4.08-1.824-4.08-4.08s1.824-4.08 4.08-4.08h65.072a4.08 4.08 0 0 1 0 8.16M397.6 581.712h-31.28a4.08 4.08 0 0 1 0-8.16h31.28c2.256 0 4.08 1.824 4.08 4.08s-1.824 4.08-4.08 4.08M483.392 622.736H454.88a4.076 4.076 0 0 1-4.08-4.08c0-2.256 1.824-4.08 4.08-4.08h28.512a4.08 4.08 0 0 1 0 8.16M434.192 622.736H366.32a4.076 4.076 0 0 1-4.08-4.08c0-2.256 1.824-4.08 4.08-4.08h67.872c2.256 0 4.08 1.824 4.08 4.08 0 2.256-1.824 4.08-4.08 4.08M483.392 663.76h-49.248a4.076 4.076 0 0 1-4.08-4.08c0-2.256 1.824-4.08 4.08-4.08h49.248a4.08 4.08 0 0 1 0 8.16M415.488 663.76H366.32a4.076 4.076 0 0 1-4.08-4.08c0-2.256 1.824-4.08 4.08-4.08h49.16c2.256 0 4.08 1.824 4.08 4.08 0 2.256-1.824 4.08-4.072 4.08M677.056 581.712H598.84c-2.256 0-4.08-1.824-4.08-4.08s1.824-4.08 4.08-4.08h78.216a4.08 4.08 0 0 1 0 8.16M578.76 581.712h-27.088c-2.256 0-4.08-1.824-4.08-4.08s1.824-4.08 4.08-4.08h27.088c2.256 0 4.08 1.824 4.08 4.08s-1.824 4.08-4.08 4.08M677.056 622.736h-29.76a4.076 4.076 0 0 1-4.08-4.08c0-2.256 1.824-4.08 4.08-4.08h29.76a4.08 4.08 0 0 1 0 8.16M626.672 622.736h-75a4.076 4.076 0 0 1-4.08-4.08c0-2.256 1.824-4.08 4.08-4.08h75c2.256 0 4.08 1.824 4.08 4.08 0 2.256-1.824 4.08-4.08 4.08M677.056 663.76h-59.84a4.076 4.076 0 0 1-4.08-4.08c0-2.256 1.824-4.08 4.08-4.08h59.84a4.08 4.08 0 0 1 0 8.16M595.808 663.76h-44.136a4.076 4.076 0 0 1-4.08-4.08c0-2.256 1.824-4.08 4.08-4.08h44.136a4.08 4.08 0 0 1 0 8.16" fill="#8B7A5C" p-id="3176"></path><path d="M362.56 375.272h167.384v103.56H362.56z" fill="#8B7A5C" p-id="3177"></path></svg>