<?xml version="1.0" standalone="no"?><!DOCTYPE svg PUBLIC "-//W3C//DTD SVG 1.1//EN" "http://www.w3.org/Graphics/SVG/1.1/DTD/svg11.dtd"><svg t="1620376053201" class="icon" viewBox="0 0 1024 1024" version="1.1" xmlns="http://www.w3.org/2000/svg" p-id="1268" xmlns:xlink="http://www.w3.org/1999/xlink" width="200" height="200"><defs><style type="text/css"></style></defs><path d="M512 1024C230.4 1024 0 793.6 0 512S230.4 0 512 0s512 230.4 512 512-230.4 512-512 512z" fill="#9478B5" p-id="1269"></path><path d="M1024 512c0-36.704-4-72.504-11.432-107.072l-280.096-144.312-100.048-45.088s-161.704-17.384-211.056 152.44c-9.864 33.944-9.336 88.056 15.088 124.36 13.512 20.096 30.584 32.496 27.416 41.456-13.712 38.776-49.352 34.768-49.352 34.768l-179.848 199.4-9.328 22.56L500.992 1023.48c5.288 0.208 10.6 0.312 15.92 0.392C796.264 1021.2 1024 791.952 1024 512z" fill="#5C4987" p-id="1270"></path><path d="M745.48 541.376c-70.792 76.4-191.896 79.304-270.496 6.48s-84.92-193.8-14.128-270.2c70.792-76.408 191.896-79.304 270.496-6.48s84.928 193.792 14.128 270.2" fill="#F7BE15" p-id="1271"></path><path d="M608.528 606.904c-49.048 0-98.64-18.032-137.872-54.368-39.24-36.36-62.368-85.408-65.112-138.104-2.768-52.768 15.224-102.88 50.648-141.104 35.408-38.232 84.008-59.984 136.832-61.248 52.744-1.272 103.416 18.056 142.648 54.416 39.24 36.352 62.368 85.4 65.12 138.096 2.76 52.768-15.232 102.88-50.648 141.104-37.688 40.696-89.336 61.208-141.616 61.208m-10.64-382.144c-1.52 0-3.04 0.016-4.56 0.048-49.36 1.184-94.736 21.488-127.8 57.168s-49.848 82.48-47.264 131.784c2.576 49.368 24.256 95.336 61.048 129.424 75.912 70.328 193.216 67.568 261.496-6.136 33.048-35.688 49.84-82.488 47.272-131.784-2.576-49.368-24.264-95.336-61.064-129.416-35.648-33.048-81.344-51.088-129.128-51.088m147.592 316.616h0.088-0.088z" fill="#474341" p-id="1272"></path><path d="M766 408.008c0 89-72.144 161.144-161.144 161.144-88.992 0-161.144-72.144-161.144-161.144s72.144-161.144 161.144-161.144S766 319.008 766 408.008" fill="#5BC1ED" p-id="1273"></path><path d="M447.368 439.536c14.08 74.632 79.52 131.12 158.248 131.12 88.992 0 161.144-72.144 161.144-161.144 0-34.72-11.088-66.792-29.768-93.104-98.04 37.472-195.016 77.528-289.624 123.128" fill="#B9E2F4" p-id="1274"></path><path d="M599.848 575.16c-0.072 0-0.144 0-0.208-0.008-39.832-1.92-78.096-18.104-107.728-45.56-57.736-53.488-71.608-140.28-33.008-206.376a4.464 4.464 0 0 1 7.712 4.496c-36.512 62.52-23.328 144.672 31.36 195.344 28.096 26.032 64.352 41.368 102.096 43.192a4.462 4.462 0 0 1 4.24 4.672 4.476 4.476 0 0 1-4.464 4.24M723.344 525.312a4.4 4.4 0 0 1-3.024-1.192 4.46 4.46 0 0 1-0.248-6.296c28.088-30.32 42.344-70.072 40.16-111.952-2.192-41.928-20.608-80.96-51.856-109.912-53.28-49.352-132.152-57.552-191.872-19.896-2.072 1.296-4.832 0.688-6.144-1.392s-0.688-4.832 1.392-6.144c63.104-39.792 146.456-31.208 202.688 20.896 32.952 30.536 52.376 71.72 54.688 115.984 2.32 44.304-12.776 86.384-42.512 118.472-0.88 0.952-2.08 1.432-3.272 1.432" fill="#474341" p-id="1275"></path><path d="M236.52 808.16l-5.904-5.472c-10.584-9.808-11.224-26.496-1.416-37.08l176.672-190.68c9.808-10.584 26.496-11.224 37.08-1.416l5.904 5.472c10.584 9.808 11.224 26.496 1.416 37.08L273.6 806.752c-9.808 10.584-26.496 11.216-37.08 1.408" fill="#DACEB6" p-id="1276"></path><path d="M254.312 819.616a30.496 30.496 0 0 1-20.848-8.16l-5.904-5.472c-6.008-5.56-9.48-13.152-9.8-21.376-0.312-8.216 2.576-16.056 8.144-22.056l176.672-190.68c5.568-6 13.144-9.48 21.368-9.792 8.216-0.28 16.048 2.576 22.064 8.136l5.904 5.472c12.424 11.512 13.176 31 1.664 43.432l-176.68 190.68c-5.568 6-13.16 9.48-21.376 9.8-0.4 0.008-0.808 0.016-1.208 0.016m170.84-248.576c-0.28 0-0.568 0.008-0.864 0.016-5.816 0.216-11.192 2.672-15.112 6.92l-176.68 190.688a21.63 21.63 0 0 0-5.76 15.608 21.628 21.628 0 0 0 6.928 15.128l5.904 5.472a21.664 21.664 0 0 0 15.608 5.752c5.824-0.224 11.2-2.68 15.12-6.92l176.68-190.688c8.152-8.8 7.624-22.584-1.168-30.728l-5.904-5.472a21.588 21.588 0 0 0-14.752-5.776" fill="#474341" p-id="1277"></path><path d="M287.352 780.928a4.476 4.476 0 0 1-2.968-1.12l-29.832-26.224a4.51 4.51 0 0 1-0.416-6.344 4.51 4.51 0 0 1 6.344-0.408l29.832 26.224a4.51 4.51 0 0 1 0.416 6.344 4.46 4.46 0 0 1-3.376 1.528" fill="#8B7A5C" p-id="1278"></path><path d="M460.848 588.568l28.792-31.072-25.384-23.512-1.056 1.144-27.736 29.92" fill="#DD9D00" p-id="1279"></path><path d="M460.848 593.024a4.386 4.386 0 0 1-3.024-1.192 4.46 4.46 0 0 1-0.248-6.296l25.76-27.8-18.84-17.456-25.76 27.8a4.45 4.45 0 0 1-6.304 0.24 4.47 4.47 0 0 1-0.248-6.304l28.808-31.072 6.288-0.232 25.384 23.52 0.248 6.296L464.12 591.6a4.484 4.484 0 0 1-3.272 1.424" fill="#474341" p-id="1280"></path><path d="M412.912 595.344a1210795.358 1210795.358 0 0 1-99.232 107.088c-3.928 4.24 2.416 10.608 6.352 6.352l99.232-107.088c3.928-4.232-2.408-10.608-6.352-6.352M379.88 658.952l-76.328 82.376c-3.928 4.24 2.408 10.608 6.352 6.352 25.44-27.456 50.88-54.92 76.328-82.376 3.928-4.232-2.408-10.608-6.352-6.352M420.984 614.592c-4.696 5.072-9.4 10.136-14.088 15.208-3.928 4.24 2.408 10.608 6.352 6.352l14.088-15.208c3.928-4.232-2.416-10.608-6.352-6.352M296.608 719.584l-11.16 12.04c-3.928 4.24 2.416 10.608 6.352 6.352 3.72-4.016 7.44-8.032 11.16-12.04 3.936-4.232-2.408-10.6-6.352-6.352" fill="#8B7A5C" p-id="1281"></path><path d="M668.328 428.224l42.976-24.576c5.016-2.864 0.496-10.64-4.536-7.76l-42.976 24.576c-5.016 2.872-0.496 10.64 4.536 7.76M533.272 505.448c34.792-19.888 69.576-39.784 104.368-59.672 5.016-2.872 0.496-10.64-4.536-7.76l-104.368 59.68c-5.024 2.864-0.496 10.632 4.536 7.752M612.84 504.016l122.784-70.2c5.016-2.872 0.496-10.64-4.536-7.76-40.928 23.4-81.856 46.8-122.784 70.208-5.016 2.856-0.496 10.624 4.536 7.752M557.592 535.608c10.232-5.848 20.464-11.704 30.696-17.552 5.024-2.872 0.496-10.64-4.536-7.76-10.232 5.848-20.464 11.704-30.696 17.552-5.024 2.864-0.496 10.632 4.536 7.76" fill="#474341" p-id="1282"></path></svg>