<?xml version="1.0" standalone="no"?><!DOCTYPE svg PUBLIC "-//W3C//DTD SVG 1.1//EN" "http://www.w3.org/Graphics/SVG/1.1/DTD/svg11.dtd"><svg t="1620549684479" class="icon" viewBox="0 0 1024 1024" version="1.1" xmlns="http://www.w3.org/2000/svg" p-id="1125" xmlns:xlink="http://www.w3.org/1999/xlink" width="200" height="200"><defs><style type="text/css"></style></defs><path d="M704 747.6h85.4" fill="#E5F1F9" p-id="1126"></path><path d="M789.4 761H704c-7.4 0-13.4-6-13.4-13.4s6-13.4 13.4-13.4h85.4c7.4 0 13.4 6 13.4 13.4s-6 13.4-13.4 13.4z" fill="#282F63" p-id="1127"></path><path d="M704 293.3h85.4" fill="#E5F1F9" p-id="1128"></path><path d="M789.4 306.7H704c-7.4 0-13.4-6-13.4-13.4s6-13.4 13.4-13.4h85.4c7.4 0 13.4 6 13.4 13.4s-6 13.4-13.4 13.4z" fill="#282F63" p-id="1129"></path><path d="M794.6 893c-7.4 0-13.4-6-13.4-13.4V169.2c0-7.4 6-13.4 13.4-13.4h90c7.4 0 13.4 6 13.4 13.4v710.4c0 7.4-6 13.4-13.4 13.4h-90z" fill="#1E62A1" p-id="1130"></path><path d="M884.7 169.2v710.4h-90V169.2h90m0-26.8h-90c-14.8 0-26.8 12-26.8 26.8v710.4c0 14.8 12 26.8 26.8 26.8h90c14.8 0 26.8-12 26.8-26.8V169.2c0-14.8-12-26.8-26.8-26.8z" fill="#282F63" p-id="1131"></path><path d="M137.9 893c-7.4 0-13.4-6-13.4-13.4V169.2c0-7.4 6-13.4 13.4-13.4h90c7.4 0 13.4 6 13.4 13.4v710.4c0 7.4-6 13.4-13.4 13.4h-90z" fill="#1E62A1" p-id="1132"></path><path d="M228 169.2v710.4h-90V169.2h90m0-26.8h-90c-14.8 0-26.8 12-26.8 26.8v710.4c0 14.8 12 26.8 26.8 26.8h90c14.8 0 26.8-12 26.8-26.8V169.2c0-14.8-12-26.8-26.8-26.8z" fill="#282F63" p-id="1133"></path><path d="M331 369.9c-42.2 0-76.6-34.3-76.6-76.6s34.3-76.6 76.6-76.6 76.6 34.3 76.6 76.6-34.4 76.6-76.6 76.6z" fill="#FFDBA0" p-id="1134"></path><path d="M331 230.2c34.9 0 63.2 28.3 63.2 63.2s-28.3 63.2-63.2 63.2c-34.9 0-63.2-28.3-63.2-63.2s28.3-63.2 63.2-63.2m0-26.8c-49.6 0-90 40.4-90 90s40.4 90 90 90 90-40.4 90-90-40.4-90-90-90z" fill="#282F63" p-id="1135"></path><path d="M364.4 239.8c6.1 9.7 9.6 21.1 9.6 33.4 0 34.9-28.3 63.2-63.2 63.2-12.3 0-23.7-3.6-33.4-9.6 11.2 17.8 30.9 29.7 53.5 29.7 34.9 0 63.2-28.3 63.2-63.2 0-22.6-11.9-42.3-29.7-53.5z" fill="#FCC975" p-id="1136"></path><path d="M484.2 369.9c-42.2 0-76.6-34.3-76.6-76.6s34.3-76.6 76.6-76.6 76.6 34.3 76.6 76.6-34.3 76.6-76.6 76.6z" fill="#FFDBA0" p-id="1137"></path><path d="M484.2 230.2c34.9 0 63.2 28.3 63.2 63.2s-28.3 63.2-63.2 63.2-63.2-28.3-63.2-63.2 28.4-63.2 63.2-63.2m0-26.8c-49.6 0-90 40.4-90 90s40.4 90 90 90 90-40.4 90-90-40.3-90-90-90z" fill="#282F63" p-id="1138"></path><path d="M517.7 239.8c6.1 9.7 9.6 21.1 9.6 33.4 0 34.9-28.3 63.2-63.2 63.2-12.3 0-23.7-3.6-33.4-9.6 11.2 17.8 30.9 29.7 53.5 29.7 34.9 0 63.2-28.3 63.2-63.2 0-22.6-11.9-42.3-29.7-53.5z" fill="#FCC975" p-id="1139"></path><path d="M637.5 369.9c-42.2 0-76.6-34.3-76.6-76.6s34.3-76.6 76.6-76.6 76.6 34.3 76.6 76.6-34.4 76.6-76.6 76.6z" fill="#FFDBA0" p-id="1140"></path><path d="M637.5 230.2c34.9 0 63.2 28.3 63.2 63.2s-28.3 63.2-63.2 63.2c-34.9 0-63.2-28.3-63.2-63.2s28.3-63.2 63.2-63.2m0-26.8c-49.6 0-90 40.4-90 90s40.4 90 90 90 90-40.4 90-90-40.4-90-90-90z" fill="#282F63" p-id="1141"></path><path d="M670.9 239.8c6.1 9.7 9.6 21.1 9.6 33.4 0 34.9-28.3 63.2-63.2 63.2-12.3 0-23.7-3.6-33.4-9.6 11.2 17.8 30.9 29.7 53.5 29.7 34.9 0 63.2-28.3 63.2-63.2 0.1-22.6-11.8-42.3-29.7-53.5z" fill="#FCC975" p-id="1142"></path><path d="M331 824.2c-42.2 0-76.6-34.3-76.6-76.6S288.7 671 331 671s76.6 34.3 76.6 76.6-34.4 76.6-76.6 76.6z" fill="#E5F1F9" p-id="1143"></path><path d="M331 684.4c34.9 0 63.2 28.3 63.2 63.2 0 34.9-28.3 63.2-63.2 63.2-34.9 0-63.2-28.3-63.2-63.2 0-34.9 28.3-63.2 63.2-63.2m0-26.8c-49.6 0-90 40.4-90 90s40.4 90 90 90 90-40.4 90-90-40.4-90-90-90z" fill="#282F63" p-id="1144"></path><path d="M484.2 824.2c-42.2 0-76.6-34.3-76.6-76.6S442 671 484.2 671s76.6 34.3 76.6 76.6-34.3 76.6-76.6 76.6z" fill="#E5F1F9" p-id="1145"></path><path d="M484.2 684.4c34.9 0 63.2 28.3 63.2 63.2 0 34.9-28.3 63.2-63.2 63.2S421 782.5 421 747.6c0.1-34.9 28.4-63.2 63.2-63.2m0-26.8c-49.6 0-90 40.4-90 90s40.4 90 90 90 90-40.4 90-90-40.3-90-90-90z" fill="#282F63" p-id="1146"></path><path d="M637.5 824.2c-42.2 0-76.6-34.3-76.6-76.6s34.3-76.6 76.6-76.6 76.6 34.3 76.6 76.6-34.4 76.6-76.6 76.6z" fill="#E5F1F9" p-id="1147"></path><path d="M637.5 684.4c34.9 0 63.2 28.3 63.2 63.2 0 34.9-28.3 63.2-63.2 63.2-34.9 0-63.2-28.3-63.2-63.2 0.1-34.9 28.3-63.2 63.2-63.2m0-26.8c-49.6 0-90 40.4-90 90s40.4 90 90 90 90-40.4 90-90-40.4-90-90-90z" fill="#282F63" p-id="1148"></path><path d="M701 605.2c-42.2 0-76.6-34.3-76.6-76.6S658.7 452 701 452s76.6 34.3 76.6 76.6-34.4 76.6-76.6 76.6z" fill="#E5F1F9" p-id="1149"></path><path d="M701 465.5c34.9 0 63.2 28.3 63.2 63.2 0 34.9-28.3 63.2-63.2 63.2s-63.2-28.3-63.2-63.2c0.1-34.9 28.3-63.2 63.2-63.2m0-26.8c-49.6 0-90 40.4-90 90s40.4 90 90 90 90-40.4 90-90-40.4-90-90-90z" fill="#282F63" p-id="1150"></path><path d="M547.7 605.2c-42.2 0-76.6-34.3-76.6-76.6s34.3-76.6 76.6-76.6 76.6 34.3 76.6 76.6-34.3 76.6-76.6 76.6z" fill="#E5F1F9" p-id="1151"></path><path d="M547.7 465.5c34.9 0 63.2 28.3 63.2 63.2 0 34.9-28.3 63.2-63.2 63.2s-63.2-28.3-63.2-63.2c0.1-34.9 28.4-63.2 63.2-63.2m0-26.8c-49.6 0-90 40.4-90 90s40.4 90 90 90 90-40.4 90-90-40.4-90-90-90z" fill="#282F63" p-id="1152"></path><path d="M328 528.7h-85.4" fill="#E5F1F9" p-id="1153"></path><path d="M328 542.1h-85.4c-7.4 0-13.4-6-13.4-13.4s6-13.4 13.4-13.4H328c7.4 0 13.4 6 13.4 13.4s-6 13.4-13.4 13.4z" fill="#282F63" p-id="1154"></path><path d="M394.4 605.2c-42.2 0-76.6-34.3-76.6-76.6s34.3-76.6 76.6-76.6 76.6 34.3 76.6 76.6-34.3 76.6-76.6 76.6z" fill="#E5F1F9" p-id="1155"></path><path d="M394.4 465.5c34.9 0 63.2 28.3 63.2 63.2 0 34.9-28.3 63.2-63.2 63.2-34.9 0-63.2-28.3-63.2-63.2 0.1-34.9 28.4-63.2 63.2-63.2m0-26.8c-49.6 0-90 40.4-90 90s40.4 90 90 90 90-40.4 90-90-40.3-90-90-90z" fill="#282F63" p-id="1156"></path><path d="M427.9 475.2c6.1 9.7 9.6 21.1 9.6 33.4 0 34.9-28.3 63.2-63.2 63.2-12.3 0-23.7-3.6-33.4-9.6 11.2 17.8 30.9 29.7 53.5 29.7 34.9 0 63.2-28.3 63.2-63.2 0-22.6-11.9-42.4-29.7-53.5zM581.1 475.2c6.1 9.7 9.6 21.1 9.6 33.4 0 34.9-28.3 63.2-63.2 63.2-12.3 0-23.7-3.6-33.4-9.6 11.2 17.8 30.9 29.7 53.5 29.7 34.9 0 63.2-28.3 63.2-63.2 0.1-22.6-11.8-42.4-29.7-53.5zM734.4 475.2c6.1 9.7 9.6 21.1 9.6 33.4 0 34.9-28.3 63.2-63.2 63.2-12.3 0-23.7-3.6-33.4-9.6 11.2 17.8 30.9 29.7 53.5 29.7 34.9 0 63.2-28.3 63.2-63.2 0.1-22.6-11.8-42.4-29.7-53.5z" fill="#AAD4E9" p-id="1157"></path><path d="M364.4 694.1c6.1 9.7 9.6 21.1 9.6 33.4 0 34.9-28.3 63.2-63.2 63.2-12.3 0-23.7-3.6-33.4-9.6 11.2 17.8 30.9 29.7 53.5 29.7 34.9 0 63.2-28.3 63.2-63.2 0-22.6-11.9-42.4-29.7-53.5zM517.7 694.1c6.1 9.7 9.6 21.1 9.6 33.4 0 34.9-28.3 63.2-63.2 63.2-12.3 0-23.7-3.6-33.4-9.6 11.2 17.8 30.9 29.7 53.5 29.7 34.9 0 63.2-28.3 63.2-63.2 0-22.6-11.9-42.4-29.7-53.5zM670.9 694.1c6.1 9.7 9.6 21.1 9.6 33.4 0 34.9-28.3 63.2-63.2 63.2-12.3 0-23.7-3.6-33.4-9.6 11.2 17.8 30.9 29.7 53.5 29.7 34.9 0 63.2-28.3 63.2-63.2 0.1-22.6-11.8-42.4-29.7-53.5z" fill="#AAD4E9" p-id="1158"></path><path d="M701.6 118.9c-4.6 0-8.4-3.8-8.4-8.4 0-7.7-5.6-14.7-13.3-15.4-8.7-0.8-16.1 6.1-16.1 14.6v0.8c0 4.6-3.8 8.4-8.4 8.4-7.7 0-14.7 5.6-15.4 13.3-0.8 8.7 6.1 16.1 14.6 16.1h0.8c4.6 0 8.4 3.8 8.4 8.4 0 7.7 5.6 14.7 13.3 15.4 8.7 0.8 16.1-6.1 16.1-14.6v-0.8c0-4.6 3.8-8.4 8.4-8.4h0.8c8.5 0 15.4-7.4 14.6-16.1-0.7-7.7-7.7-13.3-15.4-13.3z" fill="#9AD6E8" p-id="1159"></path><path d="M326.2 413.9c-4.6 0-8.4-3.8-8.4-8.4 0-7.7-5.6-14.7-13.3-15.4-8.7-0.8-16.1 6.1-16.1 14.6v0.8c0 4.6-3.8 8.4-8.4 8.4-7.7 0-14.7 5.6-15.4 13.3-0.8 8.7 6.1 16.1 14.6 16.1h0.8c4.6 0 8.4 3.8 8.4 8.4 0 7.7 5.6 14.7 13.3 15.4 8.7 0.8 16.1-6.1 16.1-14.6v-0.8c0-4.6 3.8-8.4 8.4-8.4h0.8c8.5 0 15.4-7.4 14.6-16.1-0.7-7.7-7.7-13.3-15.4-13.3z" fill="#9AD6E8" p-id="1160"></path></svg>