<?xml version="1.0" standalone="no"?><!DOCTYPE svg PUBLIC "-//W3C//DTD SVG 1.1//EN" "http://www.w3.org/Graphics/SVG/1.1/DTD/svg11.dtd"><svg class="icon" width="200px" height="200.00px" viewBox="0 0 1024 1024" version="1.1" xmlns="http://www.w3.org/2000/svg"><path d="M332.796922 686.083126m-332.796922 0a332.796922 332.796922 0 1 0 665.593843 0 332.796922 332.796922 0 1 0-665.593843 0Z" fill="#FFDCEE" /><path d="M883.19183 1024h-639.99408A141.054695 141.054695 0 0 1 102.399053 883.201302v-742.393132A141.054695 141.054695 0 0 1 243.19775 0.009472h516.347224a88.319183 88.319183 0 0 1 63.487413 25.599763l189.694245 189.694245A38.399645 38.399645 0 0 1 1023.990528 243.207222v639.99408a141.054695 141.054695 0 0 1-140.798698 140.798698zM243.19775 76.808762A63.999408 63.999408 0 0 0 179.198342 140.80817v742.393132A63.999408 63.999408 0 0 0 243.19775 947.20071h639.99408a63.999408 63.999408 0 0 0 63.999408-63.999408V259.079076l-179.198342-179.198343a13.055879 13.055879 0 0 0-8.447922-3.071971z" fill="#434260" /><path d="M307.197158 409.605683H243.709746v207.358082h32.767697V537.604499H307.197158c45.055583 0 76.79929-20.735808 76.79929-66.047389S352.764737 409.605683 307.197158 409.605683z m-1.791983 102.399053H276.477443v-76.79929h25.599763c33.023695 0 51.199526 8.959917 51.199526 36.351664S337.660877 512.004736 304.637182 512.004736zM488.69948 409.605683h-62.71942v207.358082h32.511699V537.604499h31.231711c45.055583 0 78.079278-20.735808 78.079278-66.047389S534.779053 409.605683 488.69948 409.605683zM486.395501 512.004736h-28.15974v-76.79929H486.395501c33.023695 0 51.199526 8.959917 51.199526 36.351664S519.931191 512.004736 486.395501 512.004736zM582.65061 435.717442h60.927437v179.966335h32.511699v-179.966335h61.183434v-27.391747h-154.62257v27.391747zM844.792186 510.46875l55.807483-102.399053h-35.839668l-25.599763 48.63955c-4.863955 9.471912-8.703919 18.943825-14.07987 31.231712h-1.535986c-6.143943-12.287886-10.751901-21.759799-15.615855-31.231712l-25.599764-48.63955h-34.55968l55.807484 100.351072-59.391451 107.00701h34.559681l25.599763-51.199526c5.119953-10.751901 10.495903-20.991806 16.127851-33.791688 6.655938 12.799882 12.031889 23.039787 17.151841 33.791688l27.391747 51.199526h36.351663z" fill="#434260" /></svg>