<?xml version="1.0" standalone="no"?><!DOCTYPE svg PUBLIC "-//W3C//DTD SVG 1.1//EN" "http://www.w3.org/Graphics/SVG/1.1/DTD/svg11.dtd"><svg t="1621142899910" class="icon" viewBox="0 0 1060 1024" version="1.1" xmlns="http://www.w3.org/2000/svg" p-id="3395" xmlns:xlink="http://www.w3.org/1999/xlink" width="207.03125" height="200"><defs><style type="text/css"></style></defs><path d="M741.702063 700.048698m-317.087927 0a317.087927 317.087927 0 1 0 634.175855 0 317.087927 317.087927 0 1 0-634.175855 0Z" fill="#5CF1E7" p-id="3396"></path><path d="M512.922895 422.768346a91.511667 91.511667 0 1 1-91.511667 91.511667 91.511667 91.511667 0 0 1 91.511667-91.511667m0-91.511667a183.023335 183.023335 0 1 0 183.023335 183.023334 183.023335 183.023335 0 0 0-183.023335-183.023334z" fill="#A8B9E9" p-id="3397"></path><path d="M511.092662 1024h-27.4535a120.337842 120.337842 0 0 1-109.356443-87.851201 34.316875 34.316875 0 0 0-21.047683-24.250591 34.774434 34.774434 0 0 0-32.9442 4.575583 116.219817 116.219817 0 0 1-137.267501-8.693608 463.506595 463.506595 0 0 1-48.958742-45.755834 118.965167 118.965167 0 0 1-17.387217-142.300643 34.774434 34.774434 0 0 0 0-32.029083 33.859317 33.859317 0 0 0-25.165709-20.590125 119.880284 119.880284 0 0 1-91.511667-104.780859v-45.755834-19.675009a119.880284 119.880284 0 0 1 88.308759-114.389584 33.401759 33.401759 0 0 0 23.335475-20.132567 35.68955 35.68955 0 0 0-3.202908-33.859316 116.219817 116.219817 0 0 1 6.405816-137.267501 511.092662 511.092662 0 0 1 61.770376-64.058167 118.507609 118.507609 0 0 1 137.267501-10.523842 36.147109 36.147109 0 0 0 32.029083 2.74535 34.316875 34.316875 0 0 0 22.420359-26.538384 117.592492 117.592492 0 0 1 104.323301-91.511667A538.546162 538.546162 0 0 1 549.070004 1.357118a118.507609 118.507609 0 0 1 104.3233 91.511667 34.774434 34.774434 0 0 0 20.132567 24.70815 35.231992 35.231992 0 0 0 32.9442-2.74535 117.592492 117.592492 0 0 1 137.267501 10.981401 514.29557 514.29557 0 0 1 54.449442 54.907 118.965167 118.965167 0 0 1 8.236051 137.267501 35.231992 35.231992 0 0 0 21.9628 53.534325 120.795401 120.795401 0 0 1 91.511667 110.271559v70.463984a121.252959 121.252959 0 0 1-94.714576 103.865742 45.755834 45.755834 0 0 1-55.822117-30.19885 45.755834 45.755834 0 0 1 32.9442-55.822117c12.354075-2.74535 25.165709-11.438958 26.080826-22.877917a290.091985 290.091985 0 0 0 0-34.774433v-21.9628a28.826175 28.826175 0 0 0-20.132567-26.995942 126.743659 126.743659 0 0 1-78.700034-192.63206 26.080825 26.080825 0 0 0 0-30.19885 419.123436 419.123436 0 0 0-45.755834-45.755834 25.165709 25.165709 0 0 0-29.741292 0A126.743659 126.743659 0 0 1 640.581671 202.682786a128.116334 128.116334 0 0 1-73.666892-88.308759 25.623267 25.623267 0 0 0-24.70815-21.505242 353.235036 353.235036 0 0 0-62.227934 0 24.250592 24.250592 0 0 0-21.9628 19.21745 126.743659 126.743659 0 0 1-76.412242 91.511668 128.573893 128.573893 0 0 1-113.932026-9.151167 26.080825 26.080825 0 0 0-31.113967 0 421.868786 421.868786 0 0 0-50.331417 53.991884A24.250592 24.250592 0 0 0 183.023335 275.89212a127.201218 127.201218 0 0 1 11.896516 119.880284 125.828543 125.828543 0 0 1-83.733175 73.666892 27.911059 27.911059 0 0 0-20.590125 26.080825v15.556984A354.607711 354.607711 0 0 0 91.511667 550.427122a27.4535 27.4535 0 0 0 20.590125 24.250592 126.286101 126.286101 0 0 1 91.511668 73.666892 127.658776 127.658776 0 0 1-6.863375 114.389584 28.826175 28.826175 0 0 0 5.033141 33.859317 453.440311 453.440311 0 0 0 40.265134 37.977342 26.080825 26.080825 0 0 0 29.283734 0 126.743659 126.743659 0 0 1 190.344267 75.497125 27.911059 27.911059 0 0 0 26.080826 19.675009 345.914102 345.914102 0 0 0 57.65235 0 26.080825 26.080825 0 0 0 22.420359-21.505242 129.489009 129.489009 0 0 1 190.344268-87.393642 31.113967 31.113967 0 0 0 34.774433 0c10.523842-9.608725 20.590125-20.132567 30.656409-30.656409a45.755834 45.755834 0 1 1 67.718633 60.855259 411.802503 411.802503 0 0 1-37.062225 37.519783 121.252959 121.252959 0 0 1-140.927967 12.354075 37.977342 37.977342 0 0 0-55.822118 25.623267 117.592492 117.592492 0 0 1-103.408184 94.257018c-13.269192 2.287792-27.911059 3.202908-43.010483 3.202908z" fill="#1F56F5" p-id="3398"></path></svg>